<svg width="17" height="12" viewBox="0 0 17 12" fill="none" xmlns="http://www.w3.org/2000/svg">
<path d="M15 0H2C0.89543 0 0 0.89543 0 2V10C0 11.1046 0.89543 12 2 12H15C16.1046 12 17 11.1046 17 10V2C17 0.89543 16.1046 0 15 0Z" fill="#016FD0"/>
<path d="M9.34698 10.101V5.80103L17 5.80803V6.99603L16.115 7.94103L17 8.89503V10.108H15.588L14.837 9.28003L14.092 10.111L9.34698 10.101Z" fill="white"/>
<path d="M9.858 9.63002V6.27502H12.703V7.04702H10.779V7.57202H12.657V8.33202H10.779V8.84702H12.703V9.63002H9.858Z" fill="#016FD0"/>
<path d="M12.689 9.63002L14.263 7.95002L12.689 6.27502H13.907L14.869 7.33802L15.834 6.27502H17V6.30102L15.459 7.95002L17 9.58202V9.63002H15.822L14.843 8.55602L13.874 9.63002H12.689Z" fill="#016FD0"/>
<path d="M9.70399 1.98499H11.549L12.197 3.45599V1.98499H14.474L14.867 3.08699L15.261 1.98499H17V6.28499H7.80899L9.70399 1.98499Z" fill="white"/>
<path d="M10.05 2.45001L8.56 5.80001H9.6L9.88 5.13001H11.4L11.68 5.80001H12.73L11.24 2.45001H10.06H10.05ZM10.18 4.38001L10.63 3.31001L11.07 4.38001H10.18Z" fill="#016FD0"/>
<path d="M12.701 5.80399V2.45099L14.137 2.45699L14.875 4.51699L15.619 2.45099H17V5.80399L16.111 5.81199V3.50899L15.272 5.80399H14.461L13.604 3.50099V5.80399H12.701Z" fill="#016FD0"/>
</svg>
