<svg width="17" height="12" viewBox="0 0 17 12" fill="none" xmlns="http://www.w3.org/2000/svg">
<path d="M15.58 11.75C16.26 11.75 16.82 11.2 16.82 10.51V1.39999C16.82 1.07999 16.68 0.759992 16.45 0.529992C16.3361 0.415346 16.2005 0.324483 16.0511 0.262682C15.9018 0.200882 15.7416 0.169375 15.58 0.169992H1.41999C1.08999 0.179992 0.779993 0.299992 0.549993 0.529992C0.317175 0.768289 0.18473 1.08687 0.179993 1.41999V10.51C0.179993 10.83 0.319993 11.15 0.549993 11.39C0.779993 11.62 1.08999 11.75 1.41999 11.75H15.58Z" fill="white" stroke="black" stroke-opacity="0.2" stroke-width="0.5"/>
<path d="M8.92999 12.07H15.58C16.36 12.07 16.99 11.45 17 10.67V9C14.4889 10.4428 11.7651 11.4789 8.92999 12.07Z" fill="#F27712"/>
<path d="M16.41 6.79H15.81L15.13 5.89H15.06V6.79H14.57V4.56H15.3C15.87 4.56 16.2 4.79 16.2 5.21C16.2 5.56 15.99 5.78 15.63 5.85L16.41 6.79ZM15.69 5.23C15.69 5.02 15.52 4.9 15.22 4.9H15.07V5.58H15.21C15.52 5.58 15.69 5.46 15.69 5.23ZM12.86 4.56H14.24V4.93H13.34V5.43H14.21V5.81H13.34V6.41H14.24V6.79H12.84V4.56H12.86ZM11.26 6.84L10.2 4.54H10.74L11.41 6.05L12.09 4.55H12.62L11.55 6.85H11.27L11.26 6.84ZM6.8 6.84C6.05 6.84 5.46 6.33 5.46 5.67C5.46 5.02 6.06 4.5 6.81 4.5C7.02 4.5 7.2 4.54 7.41 4.63V5.15C7.24674 4.99078 7.02804 4.90115 6.8 4.9C6.33 4.9 5.97 5.24 5.97 5.67C5.97 6.11 6.33 6.44 6.82 6.44C7.05 6.44 7.22 6.37 7.42 6.19V6.71C7.19 6.81 7.01 6.84 6.8 6.84ZM5.31 6.1C5.31 6.53 4.96 6.83 4.43 6.83C4.06 6.83 3.8 6.7 3.56 6.4L3.89 6.14C3.99 6.34 4.19 6.44 4.42 6.44C4.64 6.44 4.8 6.29 4.8 6.12C4.8 6.02 4.75 5.94 4.65 5.89C4.55 5.84 4.43 5.79 4.31 5.76C3.85 5.61 3.69 5.46 3.69 5.14C3.69 4.78 4.03 4.51 4.48 4.51C4.76 4.51 5.01 4.59 5.22 4.75L4.97 5.05C4.91963 4.99368 4.858 4.94856 4.7891 4.91756C4.72019 4.88655 4.64555 4.87035 4.57 4.87C4.36 4.87 4.2 4.98 4.2 5.12C4.2 5.24 4.3 5.3 4.58 5.4C5.15 5.58 5.31 5.74 5.31 6.1ZM2.9 4.56H3.4V6.79H2.9V4.56ZM1.3 6.79H0.589996V4.56H1.31C2.11 4.56 2.66 5.02 2.66 5.66C2.66 6.01 2.5 6.32 2.21 6.53C1.96 6.71 1.69 6.79 1.31 6.79H1.3ZM1.87 5.12C1.71 4.99 1.52 4.94 1.2 4.94H1.07V6.42H1.21C1.52 6.42 1.71 6.36 1.87 6.24C1.95693 6.1748 2.0275 6.09025 2.0761 5.99305C2.12469 5.89585 2.15 5.78867 2.15 5.68C2.15 5.57133 2.12469 5.46415 2.0761 5.36695C2.0275 5.26975 1.95693 5.1852 1.87 5.12Z" fill="black"/>
<path d="M8.79 4.5C8.15 4.5 7.62 5.02 7.62 5.65C7.62 6.33 8.12 6.85 8.79 6.85C9.45 6.85 9.97 6.33 9.97 5.67C9.97 5.02 9.46 4.5 8.79 4.5Z" fill="#F27712"/>
</svg>
