<svg width="46" height="70" viewBox="0 0 46 70" fill="none" xmlns="http://www.w3.org/2000/svg">
<path d="M42 0H4C1.79086 0 0 1.79086 0 4V66C0 68.2091 1.79086 70 4 70H42C44.2091 70 46 68.2091 46 66V4C46 1.79086 44.2091 0 42 0Z" fill="#44B7BC"/>
<path d="M0 9.11379L20.3 4.79999V10.2028L0 14.5271V9.11379Z" fill="black"/>
<path d="M2.157 10.277L1.237 10.477V10.784L1.819 10.657V12.624L2.739 12.424V12.116L2.157 12.243V10.277ZM6.027 9.72697C6.312 9.66397 6.417 9.81197 6.428 10.097L6.767 10.023C6.735 9.52597 6.523 9.30397 6.037 9.40997C5.583 9.50497 5.276 9.82197 5.276 10.372V11.144C5.276 11.641 5.519 11.874 6.037 11.757C6.523 11.651 6.746 11.387 6.767 10.911L6.439 10.985C6.429 11.249 6.291 11.397 6.037 11.45C5.72 11.514 5.604 11.387 5.614 11.08V10.308C5.604 9.94897 5.741 9.78997 6.027 9.72697ZM4.642 11.715V10.404C4.642 10.012 4.472 9.75897 4.092 9.83297C3.849 9.88597 3.584 10.086 3.521 10.319V9.99097L2.8 10.14V10.447L3.181 10.362V12.318L3.52 12.244V10.594C3.678 10.287 3.848 10.192 4.006 10.16C4.186 10.118 4.313 10.203 4.313 10.457V12.085L5.032 11.937V11.63L4.641 11.715H4.642ZM18.947 7.01997V6.70297L17.752 6.95697V7.27397L18.09 7.19997V9.15597L18.947 8.97597V8.66997L18.429 8.77497V7.12597L18.947 7.01997ZM9.209 10.784C8.902 10.848 8.786 10.71 8.786 10.404V10.086L9.949 9.84297V9.41997C9.949 8.93397 9.685 8.64897 9.199 8.75397C8.723 8.85997 8.448 9.22997 8.448 9.70597V10.478C8.448 10.964 8.733 11.197 9.209 11.101C9.801 10.975 9.97 10.541 9.97 10.245L9.653 10.298C9.632 10.605 9.453 10.731 9.209 10.784ZM8.786 9.62097C8.786 9.32497 8.902 9.10297 9.198 9.03997C9.505 8.97597 9.611 9.16697 9.611 9.48397V9.59997L8.786 9.77997V9.61997V9.62097ZM14.474 9.66397C14.168 9.72697 14.051 9.58997 14.051 9.28297V8.96597L15.214 8.72297V8.29997C15.214 7.81297 14.95 7.52797 14.464 7.63397C13.988 7.73897 13.714 8.10897 13.714 8.58497V9.35697C13.714 9.84297 13.999 10.076 14.474 9.98097C15.066 9.85397 15.236 9.42097 15.236 9.12397L14.929 9.18797C14.887 9.48397 14.707 9.61097 14.474 9.66397ZM14.051 8.51097C14.051 8.21497 14.168 7.99297 14.464 7.92997C14.77 7.86597 14.876 8.05597 14.876 8.37397V8.48997L14.051 8.66997V8.50997V8.51097ZM17.329 9.00797V7.69697C17.329 7.32697 17.118 7.05197 16.759 7.13697C16.515 7.18897 16.272 7.38997 16.198 7.62297V7.29497L15.478 7.44297V7.74997L15.859 7.66497V9.62097L16.198 9.54697V7.89697C16.356 7.59097 16.525 7.49697 16.684 7.46397C16.864 7.42197 16.991 7.50697 16.991 7.75997V9.38997L17.71 9.24197V8.93497L17.329 9.00897V9.00797ZM13.058 9.91797V8.55197C13.058 8.20297 12.825 7.97097 12.487 8.03397C12.275 8.07697 12 8.31997 11.958 8.53097C11.916 8.36197 11.683 8.21397 11.44 8.26697C11.228 8.30897 10.996 8.52097 10.954 8.73197V8.40397L10.234 8.55197V8.85897L10.615 8.77397V10.73L10.954 10.656V9.01997C11.049 8.81897 11.197 8.62797 11.398 8.58597C11.524 8.56497 11.672 8.60697 11.672 8.90297V10.52L12.011 10.446V8.80697C12.106 8.60697 12.254 8.41597 12.455 8.37397C12.582 8.35197 12.73 8.39397 12.73 8.69097V10.308L13.449 10.16V9.85397L13.058 9.91697V9.91797ZM7.221 9.19797V11.472L7.56 11.397V9.44197L8.141 9.31497V9.00797L7.221 9.19797Z" fill="white"/>
<path d="M0.000106812 39.6001L10.8001 30.4001V43.2001H0.000106812V39.6001Z" fill="black"/>
<path d="M6.293 64.713C7.463 64.713 8.265 64.15 8.265 63.213C8.265 62.373 7.815 61.938 6.945 61.713L6.075 61.488C5.588 61.36 5.348 61.18 5.348 60.79C5.348 60.423 5.678 60.19 6.218 60.19C6.683 60.19 7.103 60.355 7.163 60.925H8.138C8.033 59.86 7.283 59.388 6.233 59.388C5.093 59.388 4.373 59.973 4.373 60.798C4.373 61.548 4.778 62.058 5.61 62.275L6.608 62.538C7.065 62.658 7.29 62.86 7.29 63.22C7.29 63.663 6.848 63.91 6.278 63.91C5.678 63.91 5.28 63.678 5.198 63.078H4.223C4.313 64.263 5.16 64.713 6.293 64.713ZM10.158 64.69C11.08 64.69 11.718 64.195 11.838 63.348H10.9C10.855 63.738 10.57 63.963 10.165 63.963C9.76 63.963 9.408 63.7 9.408 63.243V62.988H11.868V62.515C11.868 61.465 11.193 60.685 10.158 60.685C9.123 60.685 8.433 61.48 8.433 62.68C8.433 63.88 9.07 64.69 10.158 64.69ZM10.908 62.26H9.408V62.125C9.408 61.713 9.73 61.413 10.158 61.413C10.585 61.413 10.908 61.713 10.908 62.125V62.26ZM0.9 45.8C6.796 45.8 11.6 48.088 11.6 51C11.6 53.912 6.796 56.2 0.9 56.2C0.597 56.2 0.297 56.194 0 56.182V55.782C0.297 55.794 0.597 55.8 0.9 55.8C6.602 55.8 11.2 53.61 11.2 51C11.2 48.39 6.602 46.2 0.9 46.2C0.597 46.2 0.297 46.206 0 46.218V45.818C0.297 45.806 0.597 45.8 0.9 45.8ZM37.696 0C37.633 0.39 37.6 0.791 37.6 1.2C37.6 5.233 40.78 8.5 44.7 8.5C45.144 8.5 45.579 8.458 46 8.378V8.785C45.5709 8.86176 45.1359 8.90025 44.7 8.9C40.557 8.9 37.2 5.452 37.2 1.2C37.2 0.792 37.231 0.391 37.29 0H37.696Z" fill="black"/>
</svg>
