<svg width="32" height="14" viewBox="0 0 32 14" fill="none" xmlns="http://www.w3.org/2000/svg">
<path d="M25.94 4.22L27.56 9.45H27.59L29.21 4.22H30.61L28.2 10.99C27.64 12.54 27.01 13.05 25.68 13.05C25.58 13.05 25.24 13.05 25.15 13.02V11.96L25.55 11.98C26.15 11.98 26.5 11.72 26.71 11.06L26.83 10.66L24.51 4.22H25.94ZM7.4 3.43C7.71 3.46 8.6 3.55 9.16 4.39C9.1 4.43 8.1 4.99999 8.1 6.22C8.11 7.67 9.37 8.16 9.39 8.17C9.37 8.21 9.19 8.85999 8.73 9.52999C8.33 10.12 7.91 10.7 7.26 10.71C6.62 10.72 6.41 10.33 5.68 10.33C4.95 10.33 4.71 10.7 4.11 10.73C3.48 10.74 3 10.09 2.6 9.5C1.77 8.31 1.15 6.14 2 4.67C2.1952 4.31555 2.47971 4.01831 2.82529 3.80781C3.17087 3.5973 3.5655 3.48084 3.97 3.47C4.6 3.46 5.17 3.88 5.55 3.88C5.93 3.88 6.6 3.38 7.38 3.43H7.4ZM21.4 4.14C22.97 4.14 24 4.96 24 6.24V10.64H22.73V9.6H22.7C22.4951 9.95109 22.1994 10.2404 21.8439 10.4375C21.4884 10.6346 21.0863 10.7322 20.68 10.72C19.4 10.72 18.51 9.96 18.51 8.81999C18.51 7.68999 19.38 7.04 20.97 6.94L22.67 6.84V6.34C22.67 5.62 22.21 5.23 21.37 5.23C20.67 5.23 20.17 5.59 20.07 6.13H18.83C18.87 4.98 19.95 4.15 21.4 4.15V4.14ZM15.27 1.79C16.98 1.79 18.17 2.97 18.17 4.69C18.1888 5.08146 18.1252 5.4725 17.9833 5.83783C17.8414 6.20316 17.6244 6.53463 17.3464 6.81081C17.0683 7.08699 16.7354 7.30172 16.3691 7.44111C16.0028 7.5805 15.6113 7.64144 15.22 7.62H13.32V10.65H11.96V1.79H15.26H15.27ZM22.67 7.74L21.15 7.84C20.3 7.9 19.85 8.22 19.85 8.77C19.85 9.32 20.31 9.67 21.05 9.67C21.97 9.67 22.68 9.06999 22.68 8.24V7.74H22.67ZM14.91 2.94H13.33V6.47H14.9C16.1 6.47 16.77 5.81999 16.77 4.7C16.77 3.58999 16.09 2.95 14.91 2.95V2.94ZM7.4 1.12C7.46 1.69 7.24 2.25 6.9 2.66C6.56 3.06 6.02 3.38999 5.48 3.33999C5.41 2.78999 5.68 2.21 5.98 1.86C6.33 1.44 6.92 1.15 7.4 1.12Z" fill="white"/>
</svg>
