<svg width="17" height="12" viewBox="0 0 17 12" fill="none" xmlns="http://www.w3.org/2000/svg">
<path d="M1.59999 0.179993H15.4C16.19 0.179993 16.82 0.809993 16.82 1.58999V10.33C16.82 11.11 16.19 11.75 15.41 11.75H1.58999C0.809993 11.75 0.179993 11.11 0.179993 10.33V1.59999C0.179993 0.809993 0.799993 0.179993 1.58999 0.179993H1.59999Z" fill="white" stroke="black" stroke-opacity="0.2" stroke-width="0.5"/>
<path d="M1.98001 4.38999C1.57734 4.16981 1.14678 4.00499 0.700012 3.89999L0.720012 3.80999H2.65001C2.92001 3.80999 3.13001 3.90999 3.20001 4.17999L3.62001 6.18999L3.75001 6.78999L4.93001 3.81999H6.21001L4.31001 8.16999H3.05001L1.98001 4.36999V4.38999ZM7.15001 8.18999H5.95001L6.70001 3.81999H7.90001L7.15001 8.18999ZM11.52 3.92999L11.36 4.87999L11.25 4.82999C11.04 4.73999 10.75 4.64999 10.35 4.65999C9.87001 4.65999 9.66001 4.84999 9.65001 5.03999C9.65001 5.23999 9.92001 5.36999 10.33 5.57999C11.03 5.87999 11.35 6.26999 11.35 6.76999C11.34 7.66999 10.52 8.24999 9.25001 8.24999C8.71001 8.24999 8.19001 8.14999 7.91001 8.02999L8.07001 7.03999L8.24001 7.10999C8.63001 7.27999 8.88001 7.34999 9.37001 7.34999C9.71001 7.34999 10.08 7.20999 10.09 6.91999C10.09 6.72999 9.93001 6.58999 9.46001 6.37999C9.01001 6.15999 8.40001 5.80999 8.41001 5.17999C8.41001 4.33999 9.26001 3.73999 10.44 3.73999C10.91 3.73999 11.29 3.83999 11.52 3.92999ZM13.12 6.64999H14.12L13.85 5.37999L13.76 4.99999L13.61 5.42999L13.13 6.64999H13.12ZM14.62 3.81999L15.58 8.18999H14.46L14.32 7.53999H12.78L12.52 8.18999H11.26L13.05 4.18999C13.18 3.88999 13.39 3.82999 13.68 3.82999H14.61V3.81999H14.62Z" fill="#1434CB"/>
</svg>
