<svg width="17" height="12" viewBox="0 0 17 12" fill="none" xmlns="http://www.w3.org/2000/svg">
<path d="M15 0H2C0.89543 0 0 0.89543 0 2V10C0 11.1046 0.89543 12 2 12H15C16.1046 12 17 11.1046 17 10V2C17 0.89543 16.1046 0 15 0Z" fill="#0A2540"/>
<path d="M5.99999 9.60002C7.98822 9.60002 9.59999 7.98825 9.59999 6.00002C9.59999 4.0118 7.98822 2.40002 5.99999 2.40002C4.01177 2.40002 2.39999 4.0118 2.39999 6.00002C2.39999 7.98825 4.01177 9.60002 5.99999 9.60002Z" fill="#ED0006"/>
<path d="M10.8 9.60002C12.7882 9.60002 14.4 7.98825 14.4 6.00002C14.4 4.0118 12.7882 2.40002 10.8 2.40002C8.81179 2.40002 7.20001 4.0118 7.20001 6.00002C7.20001 7.98825 8.81179 9.60002 10.8 9.60002Z" fill="#F9A000"/>
<path d="M8.39999 3.32001C8.77644 3.65764 9.07753 4.0708 9.28366 4.53256C9.48979 4.99432 9.59632 5.49433 9.59632 6.00001C9.59632 6.50569 9.48979 7.00569 9.28366 7.46746C9.07753 7.92922 8.77644 8.34237 8.39999 8.68001C8.02706 8.35013 7.72704 7.94608 7.5191 7.49369C7.31115 7.0413 7.19986 6.5505 7.19233 6.05267C7.18481 5.55483 7.2812 5.06089 7.47537 4.60242C7.66954 4.14395 7.9572 3.73101 8.31999 3.39001L8.39999 3.32001Z" fill="#FF5D00"/>
</svg>
