<svg width="19" height="14" viewBox="0 0 19 14" fill="none" xmlns="http://www.w3.org/2000/svg">
<path d="M15 2H2C0.89543 2 0 2.89543 0 4V12C0 13.1046 0.89543 14 2 14H15C16.1046 14 17 13.1046 17 12V4C17 2.89543 16.1046 2 15 2Z" fill="#E6EBF1"/>
<path d="M14 4H3C2.44772 4 2 4.44772 2 5C2 5.55228 2.44772 6 3 6H14C14.5523 6 15 5.55228 15 5C15 4.44772 14.5523 4 14 4Z" fill="white"/>
<path d="M14.5 9C16.9853 9 19 6.98528 19 4.5C19 2.01472 16.9853 0 14.5 0C12.0147 0 10 2.01472 10 4.5C10 6.98528 12.0147 9 14.5 9Z" fill="#B4C2D0"/>
<path d="M12.5 5.96V3.03H12C11.96 3.36 11.8 3.49 11.42 3.53L11.18 3.54V4.05H11.84V5.95H12.51L12.5 5.96ZM14.11 6C14.76 6 15.18 5.6 15.18 5.13C15.18 4.77 14.98 4.56 14.72 4.46C14.8417 4.40938 14.9451 4.32298 15.0165 4.21226C15.0879 4.10153 15.124 3.97171 15.12 3.84C15.12 3.36 14.74 3 14.13 3C13.5 3 13.11 3.4 13.04 3.92L13.66 3.99C13.7 3.74 13.86 3.56 14.1 3.56C14.33 3.56 14.47 3.69 14.47 3.88C14.47 4.1 14.3 4.2 14.05 4.2H13.79V4.74H14.06C14.33 4.74 14.52 4.84 14.52 5.07C14.52 5.31 14.34 5.44 14.1 5.44C13.85 5.44 13.66 5.28 13.62 4.99L12.97 5.09C13.05 5.69 13.51 6 14.11 6ZM16.64 6C17.24 6 17.71 5.57 17.71 4.98C17.71 4.42 17.35 4 16.76 4C16.56 4 16.39 4.07 16.28 4.16L16.33 3.62H17.53V3.04H15.83L15.69 4.64L16.29 4.71C16.36 4.61 16.49 4.53 16.66 4.53C16.92 4.53 17.08 4.73 17.08 4.99C17.08 5.26 16.88 5.44 16.63 5.44C16.38 5.44 16.21 5.27 16.17 5L15.52 5.1C15.61 5.68 16.04 6 16.64 6Z" fill="white"/>
</svg>
