<svg width="46" height="70" viewBox="0 0 46 70" fill="none" xmlns="http://www.w3.org/2000/svg">
<path d="M0 23.9H46V66C46 67.0609 45.5786 68.0783 44.8284 68.8284C44.0783 69.5786 43.0609 70 42 70H4C2.93913 70 1.92172 69.5786 1.17157 68.8284C0.421427 68.0783 0 67.0609 0 66L0 23.9Z" fill="url(#paint0_linear_1_153)"/>
<path d="M46.001 21.1H0.00100708V23.9H46.001V21.1Z" fill="url(#paint1_linear_1_153)"/>
<path d="M4 0H42C43.0609 0 44.0783 0.421427 44.8284 1.17157C45.5786 1.92172 46 2.93913 46 4V21.1H0V4C0 2.93913 0.421427 1.92172 1.17157 1.17157C1.92172 0.421427 2.93913 0 4 0V0Z" fill="#52468C"/>
<path d="M45.9 15.588L46 15.676V21.1H2.4519e-06V3.99999C-0.00110377 3.00207 0.372148 2.04003 1.046 1.30399C13.42 2.89999 28.904 12.707 45.9 15.588Z" fill="url(#paint2_linear_1_153)"/>
<path d="M46 6.00001H23.15C26.765 6.00001 38.314 4.11701 44.625 0.980011C45.0574 1.35526 45.4041 1.81919 45.6413 2.34029C45.8786 2.86139 46.0009 3.42745 46 4.00001V6.00001Z" fill="#8888B5"/>
<path d="M20.3 23.9H12.8V70H20.3V23.9Z" fill="url(#paint3_linear_1_153)"/>
<path d="M31.9 7.89999C39.135 7.89999 45 13.765 45 21V21.1H18.801V21C18.801 13.837 24.549 8.01699 31.684 7.90199L31.9 7.89999Z" fill="url(#paint4_linear_1_153)"/>
<path d="M45.25 23.9C45.25 27.546 43.574 31.852 40.776 35.2C37.551 39.058 33.16 41.35 28.15 41.35C19.503 41.35 13.031 48.046 12.902 56.688L12.901 70H9.89999V56.95C9.89999 46.556 17.725 38.35 28.15 38.35C32.218 38.35 35.79 36.485 38.474 33.275C40.811 30.479 42.221 26.889 42.249 23.988V23.9H45.249H45.25Z" fill="url(#paint5_linear_1_153)"/>
<path d="M26.35 54.713C27.415 54.713 28.21 54.211 28.368 53.04H27.393C27.295 53.64 26.973 53.888 26.365 53.888C25.75 53.888 25.263 53.438 25.263 52.823V51.263C25.263 50.625 25.713 50.213 26.335 50.213C26.913 50.213 27.258 50.483 27.31 51.023H28.285C28.218 50.018 27.453 49.388 26.403 49.388C24.925 49.388 24.213 50.445 24.213 52.065C24.213 53.603 24.88 54.713 26.35 54.713ZM29.645 54.6V49.5H28.708V54.6H29.645ZM31.838 54.69C32.985 54.69 33.63 53.888 33.63 52.688C33.63 51.488 32.985 50.686 31.838 50.686C30.69 50.686 30.045 51.488 30.045 52.688C30.045 53.888 30.69 54.69 31.838 54.69ZM31.838 53.963C31.373 53.963 31.02 53.7 31.02 53.243V52.133C31.02 51.675 31.373 51.413 31.838 51.413C32.303 51.413 32.655 51.668 32.655 52.133V53.243C32.655 53.708 32.303 53.963 31.838 53.963ZM35.223 54.69C35.763 54.69 36.115 54.458 36.348 54.046V54.6H37.285V50.775H36.348V52.988C36.348 53.543 36.033 53.926 35.53 53.926C35.088 53.926 34.93 53.656 34.93 53.213V50.775H33.993V53.28C33.993 54.166 34.405 54.69 35.223 54.69ZM39.215 54.69C39.4365 54.6976 39.6559 54.6452 39.8501 54.5383C40.0442 54.4315 40.2059 54.2742 40.318 54.083V54.6H41.255V49.5H40.318V51.293C40.078 50.911 39.703 50.686 39.2 50.686C38.173 50.686 37.693 51.578 37.693 52.688C37.693 53.798 38.195 54.69 39.215 54.69ZM39.455 53.963C38.975 53.963 38.668 53.655 38.668 53.228V52.148C38.668 51.721 38.968 51.413 39.455 51.413C40.055 51.413 40.318 51.803 40.318 52.403V52.973C40.318 53.573 40.055 53.963 39.455 53.963Z" fill="black"/>
<path d="M38.332 21.1H0V9.08801C10.475 10.048 23.736 18.628 38.332 21.1Z" fill="white"/>
<path d="M0.00050354 9.11379L20.3005 4.79999V10.2028L0.00050354 14.5271V9.11379Z" fill="black"/>
<path d="M2.157 10.277L1.237 10.477V10.784L1.819 10.657V12.624L2.739 12.424V12.116L2.157 12.243V10.277ZM6.027 9.727C6.312 9.664 6.418 9.812 6.429 10.097L6.767 10.023C6.735 9.526 6.524 9.304 6.037 9.41C5.583 9.505 5.277 9.822 5.277 10.372V11.144C5.277 11.641 5.52 11.874 6.037 11.757C6.524 11.651 6.746 11.387 6.767 10.911L6.439 10.985C6.429 11.249 6.291 11.398 6.038 11.45C5.72 11.514 5.604 11.387 5.615 11.08V10.308C5.605 9.949 5.742 9.79 6.027 9.727ZM4.642 11.715V10.404C4.642 10.012 4.472 9.759 4.092 9.833C3.849 9.886 3.585 10.086 3.522 10.319V9.991L2.802 10.139V10.446L3.182 10.361V12.317L3.522 12.243V10.594C3.68 10.287 3.849 10.192 4.008 10.16C4.188 10.118 4.314 10.203 4.314 10.457V12.085L5.034 11.937V11.63L4.642 11.715ZM18.947 7.02V6.703L17.752 6.957V7.274L18.091 7.2V9.156L18.947 8.976V8.67L18.429 8.775V7.126L18.947 7.02ZM9.21 10.784C8.904 10.848 8.788 10.71 8.788 10.404V10.086L9.951 9.843V9.42C9.951 8.934 9.686 8.649 9.2 8.754C8.724 8.86 8.45 9.23 8.45 9.706V10.478C8.45 10.964 8.735 11.197 9.21 11.101C9.803 10.975 9.972 10.541 9.972 10.245L9.655 10.298C9.633 10.605 9.454 10.731 9.21 10.784ZM8.788 9.621C8.788 9.325 8.904 9.103 9.2 9.04C9.507 8.976 9.612 9.167 9.612 9.484V9.6L8.788 9.78V9.62V9.621ZM14.476 9.664C14.169 9.727 14.053 9.59 14.053 9.283V8.966L15.216 8.723V8.3C15.216 7.813 14.952 7.528 14.466 7.634C13.989 7.739 13.715 8.109 13.715 8.585V9.357C13.715 9.843 14 10.076 14.475 9.981C15.068 9.854 15.237 9.421 15.237 9.124L14.93 9.188C14.888 9.484 14.708 9.611 14.476 9.664ZM14.053 8.511C14.053 8.215 14.169 7.993 14.465 7.93C14.772 7.866 14.878 8.056 14.878 8.374V8.49L14.053 8.67V8.51V8.511ZM17.33 9.008V7.697C17.33 7.327 17.119 7.052 16.76 7.137C16.516 7.189 16.273 7.39 16.2 7.623V7.295L15.48 7.443V7.75L15.86 7.665V9.621L16.2 9.547V7.897C16.358 7.591 16.527 7.497 16.686 7.464C16.866 7.422 16.992 7.507 16.992 7.76V9.39L17.712 9.242V8.935L17.33 9.009V9.008ZM13.059 9.918V8.552C13.059 8.203 12.826 7.971 12.489 8.034C12.277 8.077 12.002 8.32 11.959 8.531C11.917 8.362 11.685 8.214 11.441 8.267C11.23 8.309 10.997 8.521 10.955 8.732V8.404L10.236 8.552V8.859L10.616 8.774V10.73L10.955 10.656V9.02C11.05 8.819 11.198 8.628 11.399 8.586C11.526 8.565 11.674 8.607 11.674 8.903V10.521L12.012 10.447V8.807C12.107 8.607 12.255 8.416 12.456 8.374C12.583 8.353 12.731 8.394 12.731 8.691V10.308L13.451 10.16V9.854L13.059 9.917V9.918ZM7.223 9.198V11.472L7.561 11.397V9.442L8.143 9.315V9.008L7.223 9.198Z" fill="white"/>
<path d="M36.15 23.9C36.15 28.523 34.394 33.817 31.437 38.165C28.086 43.093 23.469 46.48 18.171 47.302L17.742 47.368C17.332 47.428 16.101 47.598 14.047 47.873C12.7282 48.0499 11.4126 48.2506 10.101 48.475C6.585 49.119 3.98 50.008 1.879 51.385C1.20625 51.8239 0.577044 52.3262 0 52.885L0 43.16C2.48 41.955 5.25 41.138 8.507 40.533L8.925 40.457L9.227 40.403C10.213 40.229 11.025 40.108 12.684 39.884L15.052 39.568C15.6786 39.4844 16.3043 39.3944 16.929 39.298C19.781 38.856 22.557 36.819 24.739 33.611C26.793 30.59 28.026 26.908 28.05 23.989V23.9H36.15Z" fill="url(#paint6_linear_1_153)"/>
<path d="M2.21801 56.136C4.54401 58.484 8.05201 59.823 12.709 59.85H34C38.61 59.85 43.076 62.138 46 65.553V66C45.9999 66.8502 45.7291 67.6783 45.2267 68.3643C44.7244 69.0502 44.0166 69.5584 43.206 69.815C41.324 66.907 37.785 64.715 34.161 64.651L12.851 64.65C7.57901 64.65 3.21801 63.232 0.00100708 60.598V52.82C0.523241 54.0561 1.27558 55.1817 2.21801 56.137V56.136Z" fill="url(#paint7_linear_1_153)"/>
<defs>
<linearGradient id="paint0_linear_1_153" x1="23" y1="23.9" x2="23" y2="64.5786" gradientUnits="userSpaceOnUse">
<stop stop-color="#AC9CC0"/>
<stop offset="1" stop-color="#F2D6DF"/>
</linearGradient>
<linearGradient id="paint1_linear_1_153" x1="23.001" y1="21.1" x2="23.001" y2="23.9" gradientUnits="userSpaceOnUse">
<stop stop-color="#6F74A9"/>
<stop offset="0.8" stop-color="#515997"/>
<stop offset="1" stop-color="#323C83"/>
</linearGradient>
<linearGradient id="paint2_linear_1_153" x1="0" y1="11.202" x2="46" y2="11.202" gradientUnits="userSpaceOnUse">
<stop stop-color="#B1AFCC"/>
<stop offset="1" stop-color="#7B80B1"/>
</linearGradient>
<linearGradient id="paint3_linear_1_153" x1="12.8" y1="23.9" x2="20.3" y2="23.9" gradientUnits="userSpaceOnUse">
<stop stop-color="#EB938A"/>
<stop offset="0.9" stop-color="#E6887F"/>
<stop offset="1" stop-color="#B74840"/>
</linearGradient>
<linearGradient id="paint4_linear_1_153" x1="18.801" y1="14.5" x2="45" y2="14.5" gradientUnits="userSpaceOnUse">
<stop stop-color="white" stop-opacity="0"/>
<stop offset="1" stop-color="white" stop-opacity="0.5"/>
</linearGradient>
<linearGradient id="paint5_linear_1_153" x1="27.575" y1="51.56" x2="27.575" y2="70" gradientUnits="userSpaceOnUse">
<stop stop-color="#4FBED4"/>
<stop offset="1" stop-color="#439CCA"/>
</linearGradient>
<linearGradient id="paint6_linear_1_153" x1="18.075" y1="23.9" x2="18.075" y2="52.885" gradientUnits="userSpaceOnUse">
<stop stop-color="#52468C" stop-opacity="0.8"/>
<stop offset="1" stop-color="#52468C" stop-opacity="0.2"/>
</linearGradient>
<linearGradient id="paint7_linear_1_153" x1="23.0005" y1="52.82" x2="23.0005" y2="69.815" gradientUnits="userSpaceOnUse">
<stop stop-color="#F2B532"/>
<stop offset="1" stop-color="#EB9234"/>
</linearGradient>
</defs>
</svg>
