<svg xmlns="http://www.w3.org/2000/svg" viewBox="0 0 750 471" width="750" height="471">
  <g fill="#1434CB">
    <path d="M278.2 334.9l33.7-195.7h53.9l-33.7 195.7h-53.9zm246.8-191.9c-10.7-3.9-27.4-8.2-48.3-8.2-53.2 0-90.6 26.3-90.9 64 0 27.8 26.7 43.3 47.1 52.6 20.9 9.5 28 15.6 27.9 24.1-.1 13-16.8 19-32.3 19-21.6 0-33-2.9-50.6-10.3l-7-3.1-7.6 43.7c12.7 5.4 36.1 10.2 60.4 10.4 56.6 0 93.2-26 93.6-66.3.2-22-14.1-38.8-45-52.6-18.7-9-30.2-14.9-30.1-24 0-8 9.7-16.6 30.7-16.6 17.5-.3 30.3 3.5 40.2 7.4l4.8 2.2 7.3-41.5zM661.6 139.2h-41.6c-12.9 0-22.5 3.4-28.1 16.1l-79.7 179.6h56.5s9.2-24 11.3-29.4l68.9.1c1.6 6.9 6.5 29.3 6.5 29.3H709l-47.4-195.7zm-65.4 126.1c4.4-11.2 21.5-54.4 21.5-54.4-.3.5 4.4-11.2 7.1-18.5l3.7 16.8s10.4 47.2 12.5 57.1H596.2zM232 139.2l-52.7 133.5-5.6-27.4c-9.7-30.6-40-63.7-73.9-80.3l48.3 169.7 57-.1 84.8-195.5H232z"/>
    <path fill="#FAA61A" d="M131.9 139.2H45.2L45 142.6c67.7 16.1 112.5 55.1 131.1 102l-18.9-89.3c-3.3-12.3-12.8-15.8-25.3-16.1z"/>
  </g>
</svg>
