<svg width="10" height="10" viewBox="0 0 10 10" fill="none" xmlns="http://www.w3.org/2000/svg">
<path d="M4 7.5C5.933 7.5 7.5 5.933 7.5 4C7.5 2.067 5.933 0.5 4 0.5C2.067 0.5 0.5 2.067 0.5 4C0.5 5.933 2.067 7.5 4 7.5Z" stroke="#62788D"/>
<path d="M6.15001 6.15C6.35001 5.95 6.65001 5.95 6.85001 6.15L8.97001 8.27C9.02732 8.31298 9.07472 8.36778 9.10901 8.43067C9.1433 8.49357 9.16367 8.5631 9.16875 8.63456C9.17383 8.70601 9.16349 8.77772 9.13844 8.84484C9.11339 8.91195 9.07422 8.9729 9.02356 9.02355C8.97291 9.07421 8.91196 9.11339 8.84485 9.13844C8.77773 9.16348 8.70602 9.17382 8.63456 9.16874C8.56311 9.16366 8.49358 9.14329 8.43068 9.109C8.36778 9.07471 8.31299 9.02731 8.27001 8.97L6.15001 6.85C6.0584 6.75654 6.00708 6.63088 6.00708 6.5C6.00708 6.36912 6.0584 6.24346 6.15001 6.15Z" fill="#62788D"/>
</svg>
