<svg width="202" height="44" viewBox="0 0 202 44" fill="none" xmlns="http://www.w3.org/2000/svg">
<path d="M1 8.08002L8 11L20 17L31 18L43 19L56 26L68 21L80 23L91 14L103 31H115L127 33L140 34L151 37L162.5 27L175 28L187 21L198 12" stroke="#C5CFD9" stroke-width="1.2"/>
<path d="M1 14H8L20 21L31 25L43 27L56 29H68L80 34L91.5 28L103 35L115 30L127 28L140 26L151 31L162.5 35H175L187 34L198 18" stroke="#515DE1" stroke-width="1.2"/>
<path d="M198 21C199.657 21 201 19.6569 201 18C201 16.3431 199.657 15 198 15C196.343 15 195 16.3431 195 18C195 19.6569 196.343 21 198 21Z" fill="#515DE1"/>
</svg>
