<svg xmlns="http://www.w3.org/2000/svg" viewBox="0 0 920 470" role="img" aria-label="גרף נוכחות לאורך השנה: מתנת חג חד-פעמית קופצת פעם אחת ודועכת, בעוד הצבירה עם נקסוס עולה בהתמדה כל השנה"><rect x="0" y="0" width="920" height="470" rx="16" fill="#f6f9fc"/><line x1="55" y1="75.0" x2="890" y2="75.0" stroke="rgba(10,37,64,0.06)" stroke-width="1"/><line x1="55" y1="156.3" x2="890" y2="156.3" stroke="rgba(10,37,64,0.06)" stroke-width="1"/><line x1="55" y1="237.5" x2="890" y2="237.5" stroke="rgba(10,37,64,0.06)" stroke-width="1"/><line x1="55" y1="318.8" x2="890" y2="318.8" stroke="rgba(10,37,64,0.06)" stroke-width="1"/><line x1="55" y1="400.0" x2="890" y2="400.0" stroke="rgba(10,37,64,0.06)" stroke-width="1"/><path d="M 55.0,369.0 Q 55.0,369.0 93.0,356.7 Q 130.9,344.3 168.9,331.9 Q 206.8,319.5 244.8,307.1 Q 282.7,294.8 320.7,282.4 Q 358.6,270.0 396.6,257.6 Q 434.5,245.2 472.5,232.9 Q 510.5,220.5 548.4,206.5 Q 586.4,192.6 624.3,180.2 Q 662.3,167.9 700.2,155.5 Q 738.2,143.1 776.1,129.2 Q 814.1,115.2 852.0,102.9 L 890.0,90.5 L 890.0,400.0 L 55.0,400.0 Z" fill="rgba(99,91,255,0.10)" stroke="none"/><path d="M 55.0,384.5 Q 55.0,384.5 93.0,386.1 Q 130.9,387.6 168.9,389.2 Q 206.8,390.7 244.8,390.7 Q 282.7,390.7 320.7,389.2 Q 358.6,387.6 396.6,386.1 Q 434.5,384.5 472.5,379.9 Q 510.5,375.2 548.4,239.0 Q 586.4,102.9 624.3,183.3 Q 662.3,263.8 700.2,310.2 Q 738.2,356.7 776.1,369.0 Q 814.1,381.4 852.0,384.5 L 890.0,387.6" fill="none" stroke="#f59e0b" stroke-width="2.5" stroke-dasharray="7 5" stroke-linecap="round" stroke-linejoin="round"/><path d="M 55.0,369.0 Q 55.0,369.0 93.0,356.7 Q 130.9,344.3 168.9,331.9 Q 206.8,319.5 244.8,307.1 Q 282.7,294.8 320.7,282.4 Q 358.6,270.0 396.6,257.6 Q 434.5,245.2 472.5,232.9 Q 510.5,220.5 548.4,206.5 Q 586.4,192.6 624.3,180.2 Q 662.3,167.9 700.2,155.5 Q 738.2,143.1 776.1,129.2 Q 814.1,115.2 852.0,102.9 L 890.0,90.5" fill="none" stroke="#635bff" stroke-width="3.5" stroke-linecap="round" stroke-linejoin="round"/><text x="55.0" y="426" text-anchor="middle" font-size="14" fill="#6b7280" font-family="Heebo,Arial,sans-serif">ינו</text><text x="130.9" y="426" text-anchor="middle" font-size="14" fill="#6b7280" font-family="Heebo,Arial,sans-serif">פבר</text><text x="206.8" y="426" text-anchor="middle" font-size="14" fill="#6b7280" font-family="Heebo,Arial,sans-serif">מרץ</text><text x="282.7" y="426" text-anchor="middle" font-size="14" fill="#6b7280" font-family="Heebo,Arial,sans-serif">אפר</text><text x="358.6" y="426" text-anchor="middle" font-size="14" fill="#6b7280" font-family="Heebo,Arial,sans-serif">מאי</text><text x="434.5" y="426" text-anchor="middle" font-size="14" fill="#6b7280" font-family="Heebo,Arial,sans-serif">יון</text><text x="510.5" y="426" text-anchor="middle" font-size="14" fill="#6b7280" font-family="Heebo,Arial,sans-serif">יול</text><text x="586.4" y="426" text-anchor="middle" font-size="14" fill="#6b7280" font-family="Heebo,Arial,sans-serif">אוג</text><text x="662.3" y="426" text-anchor="middle" font-size="14" fill="#6b7280" font-family="Heebo,Arial,sans-serif">ספט</text><text x="738.2" y="426" text-anchor="middle" font-size="14" fill="#6b7280" font-family="Heebo,Arial,sans-serif">אוק</text><text x="814.1" y="426" text-anchor="middle" font-size="14" fill="#6b7280" font-family="Heebo,Arial,sans-serif">נוב</text><text x="890.0" y="426" text-anchor="middle" font-size="14" fill="#6b7280" font-family="Heebo,Arial,sans-serif">דצמ</text><g font-family="Heebo,Arial,sans-serif" font-size="15"><line x1="700" y1="40" x2="732" y2="40" stroke="#f59e0b" stroke-width="2.5" stroke-dasharray="7 5" stroke-linecap="round"/><text x="694" y="45" text-anchor="end" fill="#0a2540">מתנת חג חד-פעמית</text><line x1="468" y1="40" x2="500" y2="40" stroke="#635bff" stroke-width="3.5" stroke-linecap="round"/><text x="462" y="45" text-anchor="end" fill="#0a2540">צבירה עם נקסוס</text></g><text x="460" y="454" text-anchor="middle" font-size="13" fill="#9aa5b1" font-family="Heebo,Arial,sans-serif">נוכחות העובד לאורך השנה</text></svg>
